<mxfile host="65bd71144e">
    <diagram id="hgUrqz_70NJK25svOn1_" name="Page-1">
        <mxGraphModel dx="1634" dy="643" grid="1" gridSize="10" guides="1" tooltips="1" connect="1" arrows="1" fold="1" page="1" pageScale="1" pageWidth="827" pageHeight="1169" math="0" shadow="0">
            <root>
                <mxCell id="0"/>
                <mxCell id="1" parent="0"/>
                <mxCell id="2" value="" style="whiteSpace=wrap;html=1;fontFamily=Helvetica;fontSize=10;fontColor=default;fillColor=none;dashed=1;" vertex="1" parent="1">
                    <mxGeometry x="95.5" y="80" width="675" height="580" as="geometry"/>
                </mxCell>
                <mxCell id="3" value="" style="shape=trapezoid;perimeter=trapezoidPerimeter;whiteSpace=wrap;html=1;fixedSize=1;fontFamily=Helvetica;fontSize=9;fontColor=default;fillColor=none;direction=west;" vertex="1" parent="1">
                    <mxGeometry x="326.5" y="420" width="284" height="70" as="geometry"/>
                </mxCell>
                <mxCell id="4" value="" style="rounded=0;whiteSpace=wrap;html=1;fillColor=none;" vertex="1" parent="1">
                    <mxGeometry x="135.5" y="170" width="281" height="190" as="geometry"/>
                </mxCell>
                <mxCell id="5" value="&lt;b&gt;input_handler&lt;/b&gt;" style="text;strokeColor=none;align=center;fillColor=none;html=1;verticalAlign=middle;whiteSpace=wrap;rounded=0;" vertex="1" parent="1">
                    <mxGeometry x="251.5" y="250" width="60" height="30" as="geometry"/>
                </mxCell>
                <mxCell id="6" style="html=1;exitX=0;exitY=0.25;exitDx=0;exitDy=0;strokeColor=default;rounded=0;endArrow=none;endFill=0;startArrow=blockThin;startFill=1;" edge="1" parent="1">
                    <mxGeometry relative="1" as="geometry">
                        <mxPoint x="95.5" y="220" as="targetPoint"/>
                        <mxPoint x="135.5" y="220" as="sourcePoint"/>
                    </mxGeometry>
                </mxCell>
                <mxCell id="7" style="edgeStyle=none;rounded=0;html=1;exitX=1;exitY=0.25;exitDx=0;exitDy=0;strokeColor=default;fontFamily=Helvetica;fontSize=9;fontColor=default;startArrow=dash;startFill=0;endArrow=blockThin;endFill=1;entryX=-0.004;entryY=0.947;entryDx=0;entryDy=0;entryPerimeter=0;" edge="1" parent="1" source="9" target="4">
                    <mxGeometry relative="1" as="geometry">
                        <mxPoint x="120.5" y="350" as="targetPoint"/>
                        <Array as="points">
                            <mxPoint x="730.5" y="195"/>
                            <mxPoint x="730.5" y="390"/>
                            <mxPoint x="340.5" y="390"/>
                            <mxPoint x="110.5" y="390"/>
                            <mxPoint x="110.5" y="350"/>
                        </Array>
                    </mxGeometry>
                </mxCell>
                <mxCell id="8" value="3" style="edgeLabel;html=1;align=center;verticalAlign=middle;resizable=0;points=[];fontSize=9;fontFamily=Helvetica;fontColor=default;" vertex="1" connectable="0" parent="7">
                    <mxGeometry x="-0.7038" y="2" relative="1" as="geometry">
                        <mxPoint x="-22" y="-108" as="offset"/>
                    </mxGeometry>
                </mxCell>
                <mxCell id="9" value="" style="rounded=0;whiteSpace=wrap;html=1;fillColor=none;" vertex="1" parent="1">
                    <mxGeometry x="488.5" y="170" width="210" height="100" as="geometry"/>
                </mxCell>
                <mxCell id="10" value="&lt;b&gt;state_machine&lt;br&gt;&lt;br&gt;&lt;/b&gt;" style="text;strokeColor=none;align=center;fillColor=none;html=1;verticalAlign=middle;whiteSpace=wrap;rounded=0;" vertex="1" parent="1">
                    <mxGeometry x="571.5" y="220" width="60" height="30" as="geometry"/>
                </mxCell>
                <mxCell id="11" value="&lt;p style=&quot;line-height: 200%;&quot;&gt;&lt;br&gt;&lt;/p&gt;" style="text;strokeColor=none;fillColor=none;align=left;verticalAlign=middle;spacingLeft=4;spacingRight=4;overflow=hidden;points=[[0,0.5],[1,0.5]];portConstraint=eastwest;rotatable=0;whiteSpace=wrap;html=1;fontSize=11;" vertex="1" parent="1">
                    <mxGeometry x="464.5" y="200" width="81" height="30" as="geometry"/>
                </mxCell>
                <mxCell id="12" style="edgeStyle=none;rounded=0;html=1;strokeColor=default;fontFamily=Helvetica;fontSize=9;fontColor=default;startArrow=dash;startFill=0;endArrow=blockThin;endFill=1;entryX=0;entryY=0.5;entryDx=0;entryDy=0;exitX=0.765;exitY=1;exitDx=0;exitDy=0;exitPerimeter=0;" edge="1" parent="1" source="4" target="55">
                    <mxGeometry relative="1" as="geometry">
                        <mxPoint x="350.5" y="590" as="targetPoint"/>
                        <mxPoint x="350.5" y="370" as="sourcePoint"/>
                        <Array as="points">
                            <mxPoint x="350.5" y="410"/>
                            <mxPoint x="290.5" y="410"/>
                            <mxPoint x="290.5" y="580"/>
                        </Array>
                    </mxGeometry>
                </mxCell>
                <mxCell id="13" value="6" style="edgeLabel;html=1;align=center;verticalAlign=middle;resizable=0;points=[];fontSize=9;fontFamily=Helvetica;fontColor=default;" vertex="1" connectable="0" parent="12">
                    <mxGeometry x="-0.8969" y="1" relative="1" as="geometry">
                        <mxPoint as="offset"/>
                    </mxGeometry>
                </mxCell>
                <mxCell id="14" value="operand_input_display&lt;br&gt;" style="text;html=1;align=center;verticalAlign=middle;resizable=0;points=[];autosize=1;strokeColor=none;fillColor=none;fontFamily=Helvetica;fontSize=10;" vertex="1" parent="1">
                    <mxGeometry x="290.5" y="334" width="120" height="30" as="geometry"/>
                </mxCell>
                <mxCell id="15" style="edgeStyle=none;rounded=0;html=1;strokeColor=default;fontFamily=Helvetica;fontSize=9;fontColor=default;startArrow=none;startFill=0;endArrow=blockThin;endFill=1;" edge="1" parent="1" source="16">
                    <mxGeometry relative="1" as="geometry">
                        <mxPoint x="770.5" y="313" as="targetPoint"/>
                    </mxGeometry>
                </mxCell>
                <mxCell id="16" value="display_mode&lt;br style=&quot;font-size: 10px;&quot;&gt;" style="text;html=1;align=center;verticalAlign=middle;resizable=0;points=[];autosize=1;strokeColor=none;fillColor=none;fontFamily=Helvetica;fontSize=10;" vertex="1" parent="1">
                    <mxGeometry x="326.5" y="297.5" width="90" height="30" as="geometry"/>
                </mxCell>
                <mxCell id="17" value="state&lt;br&gt;" style="text;html=1;align=center;verticalAlign=middle;resizable=0;points=[];autosize=1;strokeColor=none;fillColor=none;fontFamily=Helvetica;fontSize=10;" vertex="1" parent="1">
                    <mxGeometry x="654.5" y="179" width="50" height="30" as="geometry"/>
                </mxCell>
                <mxCell id="18" value="&lt;p style=&quot;line-height: 200%;&quot;&gt;CLK&lt;/p&gt;&lt;p style=&quot;line-height: 200%;&quot;&gt;&lt;br&gt;&lt;/p&gt;" style="text;strokeColor=none;fillColor=none;align=left;verticalAlign=middle;spacingLeft=4;spacingRight=4;overflow=hidden;points=[[0,0.5],[1,0.5]];portConstraint=eastwest;rotatable=0;whiteSpace=wrap;html=1;fontSize=11;" vertex="1" parent="1">
                    <mxGeometry x="185.5" y="165" width="81" height="30" as="geometry"/>
                </mxCell>
                <mxCell id="19" value="&lt;b&gt;control_logic&lt;br&gt;&lt;br&gt;&lt;br&gt;&lt;/b&gt;" style="text;strokeColor=none;align=center;fillColor=none;html=1;verticalAlign=middle;whiteSpace=wrap;rounded=0;" vertex="1" parent="1">
                    <mxGeometry x="110.5" y="100" width="60" height="30" as="geometry"/>
                </mxCell>
                <mxCell id="20" style="edgeStyle=none;rounded=0;html=1;exitX=0;exitY=0.5;exitDx=0;exitDy=0;strokeColor=default;fontFamily=Helvetica;fontSize=10;fontColor=default;startArrow=none;startFill=0;endArrow=none;endFill=0;" edge="1" parent="1" source="21">
                    <mxGeometry relative="1" as="geometry">
                        <mxPoint x="95.5" y="140" as="targetPoint"/>
                        <Array as="points">
                            <mxPoint x="175.5" y="140"/>
                            <mxPoint x="95.5" y="140"/>
                            <mxPoint x="115.5" y="140"/>
                        </Array>
                    </mxGeometry>
                </mxCell>
                <mxCell id="21" value="" style="triangle;whiteSpace=wrap;html=1;fontFamily=Helvetica;fontSize=10;fontColor=default;fillColor=none;direction=south;" vertex="1" parent="1">
                    <mxGeometry x="165.5" y="170" width="20" height="20" as="geometry"/>
                </mxCell>
                <mxCell id="22" value="" style="triangle;whiteSpace=wrap;html=1;fontFamily=Helvetica;fontSize=10;fontColor=default;fillColor=none;direction=south;" vertex="1" parent="1">
                    <mxGeometry x="519" y="170" width="20" height="20" as="geometry"/>
                </mxCell>
                <mxCell id="23" value="&lt;p style=&quot;line-height: 200%;&quot;&gt;CLK&lt;/p&gt;" style="text;strokeColor=none;fillColor=none;align=left;verticalAlign=middle;spacingLeft=4;spacingRight=4;overflow=hidden;points=[[0,0.5],[1,0.5]];portConstraint=eastwest;rotatable=0;whiteSpace=wrap;html=1;fontSize=11;" vertex="1" parent="1">
                    <mxGeometry x="55.5" y="120" width="81" height="30" as="geometry"/>
                </mxCell>
                <mxCell id="24" style="html=1;exitX=0;exitY=0.25;exitDx=0;exitDy=0;strokeColor=default;rounded=0;endArrow=none;endFill=0;startArrow=blockThin;startFill=1;" edge="1" parent="1">
                    <mxGeometry relative="1" as="geometry">
                        <mxPoint x="95.5" y="254.6800000000003" as="targetPoint"/>
                        <mxPoint x="135.5" y="254.6800000000003" as="sourcePoint"/>
                    </mxGeometry>
                </mxCell>
                <mxCell id="25" style="html=1;exitX=0;exitY=0.25;exitDx=0;exitDy=0;strokeColor=default;rounded=0;endArrow=none;endFill=0;startArrow=blockThin;startFill=1;" edge="1" parent="1">
                    <mxGeometry relative="1" as="geometry">
                        <mxPoint x="96.5" y="290" as="targetPoint"/>
                        <mxPoint x="136.5" y="290" as="sourcePoint"/>
                    </mxGeometry>
                </mxCell>
                <mxCell id="26" value="display_mode_change&lt;br&gt;" style="text;html=1;align=center;verticalAlign=middle;resizable=0;points=[];autosize=1;strokeColor=none;fillColor=none;fontFamily=Helvetica;fontSize=10;" vertex="1" parent="1">
                    <mxGeometry x="131.5" y="270" width="120" height="30" as="geometry"/>
                </mxCell>
                <mxCell id="27" value="confirm&lt;br&gt;" style="text;html=1;align=center;verticalAlign=middle;resizable=0;points=[];autosize=1;strokeColor=none;fillColor=none;fontFamily=Helvetica;fontSize=10;" vertex="1" parent="1">
                    <mxGeometry x="126.5" y="240" width="60" height="30" as="geometry"/>
                </mxCell>
                <mxCell id="28" value="reset&lt;br&gt;" style="text;html=1;align=center;verticalAlign=middle;resizable=0;points=[];autosize=1;strokeColor=none;fillColor=none;fontFamily=Helvetica;fontSize=10;" vertex="1" parent="1">
                    <mxGeometry x="130.5" y="205" width="50" height="30" as="geometry"/>
                </mxCell>
                <mxCell id="29" value="operand_input&lt;br&gt;" style="text;html=1;align=center;verticalAlign=middle;resizable=0;points=[];autosize=1;strokeColor=none;fillColor=none;fontFamily=Helvetica;fontSize=10;" vertex="1" parent="1">
                    <mxGeometry x="130.5" y="300" width="90" height="30" as="geometry"/>
                </mxCell>
                <mxCell id="30" value="&lt;p style=&quot;line-height: 200%;&quot;&gt;CLK&lt;/p&gt;&lt;p style=&quot;line-height: 200%;&quot;&gt;&lt;br&gt;&lt;/p&gt;" style="text;strokeColor=none;fillColor=none;align=left;verticalAlign=middle;spacingLeft=4;spacingRight=4;overflow=hidden;points=[[0,0.5],[1,0.5]];portConstraint=eastwest;rotatable=0;whiteSpace=wrap;html=1;fontSize=11;" vertex="1" parent="1">
                    <mxGeometry x="532.5" y="160" width="81" height="30" as="geometry"/>
                </mxCell>
                <mxCell id="31" value="&lt;b&gt;alu&lt;br&gt;&lt;br&gt;&lt;/b&gt;" style="text;strokeColor=none;align=center;fillColor=none;html=1;verticalAlign=middle;whiteSpace=wrap;rounded=0;" vertex="1" parent="1">
                    <mxGeometry x="436.5" y="445" width="60" height="30" as="geometry"/>
                </mxCell>
                <mxCell id="32" value="&lt;font style=&quot;font-size: 11px;&quot;&gt;display_mode_change&lt;/font&gt;" style="text;html=1;align=center;verticalAlign=middle;resizable=0;points=[];autosize=1;strokeColor=none;fillColor=none;fontFamily=Helvetica;fontSize=11;" vertex="1" parent="1">
                    <mxGeometry x="-29.5" y="270" width="130" height="30" as="geometry"/>
                </mxCell>
                <mxCell id="33" value="confirm&lt;br&gt;" style="text;html=1;align=center;verticalAlign=middle;resizable=0;points=[];autosize=1;strokeColor=none;fillColor=none;fontFamily=Helvetica;fontSize=10;" vertex="1" parent="1">
                    <mxGeometry x="40.5" y="240" width="60" height="30" as="geometry"/>
                </mxCell>
                <mxCell id="34" value="reset&lt;br&gt;" style="text;html=1;align=center;verticalAlign=middle;resizable=0;points=[];autosize=1;strokeColor=none;fillColor=none;fontFamily=Helvetica;fontSize=10;" vertex="1" parent="1">
                    <mxGeometry x="50.5" y="205" width="50" height="30" as="geometry"/>
                </mxCell>
                <mxCell id="35" style="edgeStyle=none;rounded=0;html=1;strokeColor=default;fontFamily=Helvetica;fontSize=9;fontColor=default;startArrow=dash;startFill=0;endArrow=blockThin;endFill=1;exitX=1.007;exitY=0.419;exitDx=0;exitDy=0;exitPerimeter=0;entryX=0.488;entryY=1.009;entryDx=0;entryDy=0;entryPerimeter=0;" edge="1" parent="1" source="4" target="3">
                    <mxGeometry relative="1" as="geometry">
                        <mxPoint x="470.5" y="410" as="targetPoint"/>
                        <Array as="points">
                            <mxPoint x="430.5" y="250"/>
                            <mxPoint x="470.5" y="250"/>
                        </Array>
                    </mxGeometry>
                </mxCell>
                <mxCell id="36" value="6" style="edgeLabel;html=1;align=center;verticalAlign=middle;resizable=0;points=[];fontSize=9;fontFamily=Helvetica;fontColor=default;" vertex="1" connectable="0" parent="35">
                    <mxGeometry x="-0.7979" y="-2" relative="1" as="geometry">
                        <mxPoint as="offset"/>
                    </mxGeometry>
                </mxCell>
                <mxCell id="37" style="edgeStyle=none;rounded=0;html=1;strokeColor=default;fontFamily=Helvetica;fontSize=9;fontColor=default;startArrow=dash;startFill=0;endArrow=blockThin;endFill=1;entryX=0.482;entryY=0;entryDx=0;entryDy=0;entryPerimeter=0;exitX=1.001;exitY=0.579;exitDx=0;exitDy=0;exitPerimeter=0;" edge="1" parent="1" source="4">
                    <mxGeometry relative="1" as="geometry">
                        <mxPoint x="440.4459999999999" y="420" as="targetPoint"/>
                        <mxPoint x="420.5" y="280" as="sourcePoint"/>
                        <Array as="points">
                            <mxPoint x="440.5" y="280"/>
                        </Array>
                    </mxGeometry>
                </mxCell>
                <mxCell id="38" value="6" style="edgeLabel;html=1;align=center;verticalAlign=middle;resizable=0;points=[];fontSize=9;fontFamily=Helvetica;fontColor=default;" vertex="1" connectable="0" parent="37">
                    <mxGeometry x="-0.5522" relative="1" as="geometry">
                        <mxPoint as="offset"/>
                    </mxGeometry>
                </mxCell>
                <mxCell id="39" value="operand1&lt;br&gt;" style="text;html=1;align=center;verticalAlign=middle;resizable=0;points=[];autosize=1;strokeColor=none;fillColor=none;fontFamily=Helvetica;fontSize=10;" vertex="1" parent="1">
                    <mxGeometry x="346.5" y="267.5" width="70" height="30" as="geometry"/>
                </mxCell>
                <mxCell id="40" value="operand2&lt;br&gt;" style="text;html=1;align=center;verticalAlign=middle;resizable=0;points=[];autosize=1;strokeColor=none;fillColor=none;fontFamily=Helvetica;fontSize=10;" vertex="1" parent="1">
                    <mxGeometry x="351.5" y="235" width="70" height="30" as="geometry"/>
                </mxCell>
                <mxCell id="41" value="state" style="text;html=1;align=center;verticalAlign=middle;resizable=0;points=[];autosize=1;strokeColor=none;fillColor=none;fontFamily=Helvetica;fontSize=10;" vertex="1" parent="1">
                    <mxGeometry x="130.5" y="330" width="50" height="30" as="geometry"/>
                </mxCell>
                <mxCell id="42" value="confirm&lt;br&gt;" style="text;html=1;align=center;verticalAlign=middle;resizable=0;points=[];autosize=1;strokeColor=none;fillColor=none;fontFamily=Helvetica;fontSize=10;" vertex="1" parent="1">
                    <mxGeometry x="480.5" y="220" width="60" height="30" as="geometry"/>
                </mxCell>
                <mxCell id="43" value="reset&lt;br&gt;" style="text;html=1;align=center;verticalAlign=middle;resizable=0;points=[];autosize=1;strokeColor=none;fillColor=none;fontFamily=Helvetica;fontSize=10;" vertex="1" parent="1">
                    <mxGeometry x="480" y="190" width="50" height="30" as="geometry"/>
                </mxCell>
                <mxCell id="44" style="edgeStyle=none;rounded=0;html=1;exitX=0;exitY=0.5;exitDx=0;exitDy=0;strokeColor=default;fontFamily=Helvetica;fontSize=10;fontColor=default;startArrow=none;startFill=0;endArrow=none;endFill=0;" edge="1" parent="1">
                    <mxGeometry relative="1" as="geometry">
                        <mxPoint x="170.5" y="140" as="targetPoint"/>
                        <Array as="points">
                            <mxPoint x="529.5" y="140"/>
                            <mxPoint x="449.5" y="140"/>
                            <mxPoint x="469.5" y="140"/>
                        </Array>
                        <mxPoint x="529.5" y="170" as="sourcePoint"/>
                    </mxGeometry>
                </mxCell>
                <mxCell id="45" value="" style="edgeStyle=none;orthogonalLoop=1;jettySize=auto;html=1;rounded=0;strokeColor=default;fontFamily=Helvetica;fontSize=9;fontColor=default;startArrow=none;startFill=0;endArrow=blockThin;endFill=1;entryX=0;entryY=0.5;entryDx=0;entryDy=0;entryPerimeter=0;" edge="1" parent="1">
                    <mxGeometry width="100" relative="1" as="geometry">
                        <mxPoint x="450.5" y="80" as="sourcePoint"/>
                        <mxPoint x="486.5" y="235.99999999999977" as="targetPoint"/>
                        <Array as="points">
                            <mxPoint x="450.5" y="236"/>
                            <mxPoint x="466.5" y="236"/>
                        </Array>
                    </mxGeometry>
                </mxCell>
                <mxCell id="46" value="" style="edgeStyle=none;orthogonalLoop=1;jettySize=auto;html=1;rounded=0;strokeColor=default;fontFamily=Helvetica;fontSize=9;fontColor=default;startArrow=none;startFill=0;endArrow=blockThin;endFill=1;" edge="1" parent="1">
                    <mxGeometry width="100" relative="1" as="geometry">
                        <mxPoint x="464.5" y="80" as="sourcePoint"/>
                        <mxPoint x="484.5" y="210" as="targetPoint"/>
                        <Array as="points">
                            <mxPoint x="464.5" y="210"/>
                        </Array>
                    </mxGeometry>
                </mxCell>
                <mxCell id="47" value="operand2&lt;br&gt;" style="text;html=1;align=center;verticalAlign=middle;resizable=0;points=[];autosize=1;strokeColor=none;fillColor=none;fontFamily=Helvetica;fontSize=10;" vertex="1" parent="1">
                    <mxGeometry x="454.5" y="415" width="70" height="30" as="geometry"/>
                </mxCell>
                <mxCell id="48" value="operand1&lt;br&gt;" style="text;html=1;align=center;verticalAlign=middle;resizable=0;points=[];autosize=1;strokeColor=none;fillColor=none;fontFamily=Helvetica;fontSize=10;" vertex="1" parent="1">
                    <mxGeometry x="384.5" y="415" width="70" height="30" as="geometry"/>
                </mxCell>
                <mxCell id="49" style="edgeStyle=none;rounded=0;html=1;strokeColor=default;fontFamily=Helvetica;fontSize=9;fontColor=default;startArrow=dash;startFill=0;endArrow=blockThin;endFill=1;entryX=0;entryY=0.25;entryDx=0;entryDy=0;" edge="1" parent="1" target="55">
                    <mxGeometry relative="1" as="geometry">
                        <mxPoint x="650.5" y="540" as="targetPoint"/>
                        <mxPoint x="600.5" y="455" as="sourcePoint"/>
                        <Array as="points">
                            <mxPoint x="650.5" y="455"/>
                            <mxPoint x="650.5" y="480"/>
                            <mxPoint x="650.5" y="520"/>
                            <mxPoint x="340.5" y="520"/>
                            <mxPoint x="340.5" y="555"/>
                        </Array>
                    </mxGeometry>
                </mxCell>
                <mxCell id="50" value="6" style="edgeLabel;html=1;align=center;verticalAlign=middle;resizable=0;points=[];fontSize=9;fontFamily=Helvetica;fontColor=default;" vertex="1" connectable="0" parent="49">
                    <mxGeometry x="-0.9092" relative="1" as="geometry">
                        <mxPoint as="offset"/>
                    </mxGeometry>
                </mxCell>
                <mxCell id="51" value="result&lt;br&gt;" style="text;html=1;align=center;verticalAlign=middle;resizable=0;points=[];autosize=1;strokeColor=none;fillColor=none;fontFamily=Helvetica;fontSize=10;" vertex="1" parent="1">
                    <mxGeometry x="545.5" y="440" width="50" height="30" as="geometry"/>
                </mxCell>
                <mxCell id="52" style="html=1;strokeColor=default;rounded=0;endArrow=none;endFill=0;startArrow=blockThin;startFill=1;exitX=-0.011;exitY=0.902;exitDx=0;exitDy=0;exitPerimeter=0;" edge="1" parent="1" source="55">
                    <mxGeometry relative="1" as="geometry">
                        <mxPoint x="110.5" y="390" as="targetPoint"/>
                        <mxPoint x="340.5" y="670" as="sourcePoint"/>
                        <Array as="points">
                            <mxPoint x="360.5" y="620"/>
                            <mxPoint x="110.5" y="620"/>
                        </Array>
                    </mxGeometry>
                </mxCell>
                <mxCell id="53" style="edgeStyle=none;rounded=0;html=1;exitX=1;exitY=0.5;exitDx=0;exitDy=0;strokeColor=default;fontFamily=Helvetica;fontSize=9;fontColor=default;startArrow=dash;startFill=0;endArrow=blockThin;endFill=1;" edge="1" parent="1" source="55">
                    <mxGeometry relative="1" as="geometry">
                        <mxPoint x="770.5" y="580.0000000000002" as="targetPoint"/>
                    </mxGeometry>
                </mxCell>
                <mxCell id="54" value="6" style="edgeLabel;html=1;align=center;verticalAlign=middle;resizable=0;points=[];fontSize=9;fontFamily=Helvetica;fontColor=default;" vertex="1" connectable="0" parent="53">
                    <mxGeometry x="-0.639" y="-2" relative="1" as="geometry">
                        <mxPoint as="offset"/>
                    </mxGeometry>
                </mxCell>
                <mxCell id="55" value="" style="whiteSpace=wrap;html=1;fontFamily=Helvetica;fontSize=9;fontColor=default;fillColor=none;" vertex="1" parent="1">
                    <mxGeometry x="384.5" y="530" width="216" height="100" as="geometry"/>
                </mxCell>
                <mxCell id="56" value="&lt;b&gt;combinational logic&lt;br&gt;&lt;/b&gt;" style="text;strokeColor=none;align=center;fillColor=none;html=1;verticalAlign=middle;whiteSpace=wrap;rounded=0;" vertex="1" parent="1">
                    <mxGeometry x="444.5" y="535" width="96" height="30" as="geometry"/>
                </mxCell>
                <mxCell id="57" style="edgeStyle=none;rounded=0;html=1;strokeColor=default;fontFamily=Helvetica;fontSize=9;fontColor=default;startArrow=block;startFill=1;endArrow=none;endFill=0;entryX=0.002;entryY=0.638;entryDx=0;entryDy=0;entryPerimeter=0;" edge="1" parent="1" source="58" target="2">
                    <mxGeometry relative="1" as="geometry">
                        <mxPoint x="90.5" y="455" as="targetPoint"/>
                    </mxGeometry>
                </mxCell>
                <mxCell id="58" value="operator_select&lt;br&gt;" style="text;html=1;align=center;verticalAlign=middle;resizable=0;points=[];autosize=1;strokeColor=none;fillColor=none;fontFamily=Helvetica;fontSize=10;" vertex="1" parent="1">
                    <mxGeometry x="336.5" y="440" width="90" height="30" as="geometry"/>
                </mxCell>
                <mxCell id="59" value="state&lt;br&gt;" style="text;html=1;align=center;verticalAlign=middle;resizable=0;points=[];autosize=1;strokeColor=none;fillColor=none;fontFamily=Helvetica;fontSize=10;" vertex="1" parent="1">
                    <mxGeometry x="376.5" y="600" width="50" height="30" as="geometry"/>
                </mxCell>
                <mxCell id="60" value="result&lt;br&gt;" style="text;html=1;align=center;verticalAlign=middle;resizable=0;points=[];autosize=1;strokeColor=none;fillColor=none;fontFamily=Helvetica;fontSize=10;" vertex="1" parent="1">
                    <mxGeometry x="384.5" y="540" width="50" height="30" as="geometry"/>
                </mxCell>
                <mxCell id="61" value="operand_input_display&lt;br&gt;" style="text;html=1;align=center;verticalAlign=middle;resizable=0;points=[];autosize=1;strokeColor=none;fillColor=none;fontFamily=Helvetica;fontSize=10;" vertex="1" parent="1">
                    <mxGeometry x="379.5" y="570" width="120" height="30" as="geometry"/>
                </mxCell>
                <mxCell id="62" value="display_result&lt;br&gt;" style="text;html=1;align=center;verticalAlign=middle;resizable=0;points=[];autosize=1;strokeColor=none;fillColor=none;fontFamily=Helvetica;fontSize=10;" vertex="1" parent="1">
                    <mxGeometry x="524.5" y="565" width="80" height="30" as="geometry"/>
                </mxCell>
                <mxCell id="63" style="html=1;exitX=0;exitY=0.25;exitDx=0;exitDy=0;strokeColor=default;rounded=0;endArrow=dash;endFill=0;startArrow=blockThin;startFill=1;" edge="1" parent="1">
                    <mxGeometry relative="1" as="geometry">
                        <mxPoint x="96.5" y="314.5799999999999" as="targetPoint"/>
                        <mxPoint x="136.5" y="314.5799999999999" as="sourcePoint"/>
                    </mxGeometry>
                </mxCell>
                <mxCell id="64" value="4&lt;br&gt;" style="edgeLabel;html=1;align=center;verticalAlign=middle;resizable=0;points=[];fontSize=9;fontFamily=Helvetica;fontColor=default;" vertex="1" connectable="0" parent="63">
                    <mxGeometry x="0.2242" y="-2" relative="1" as="geometry">
                        <mxPoint as="offset"/>
                    </mxGeometry>
                </mxCell>
                <mxCell id="65" value="display_result&lt;br&gt;" style="text;html=1;align=center;verticalAlign=middle;resizable=0;points=[];autosize=1;strokeColor=none;fillColor=none;fontFamily=Helvetica;fontSize=10;" vertex="1" parent="1">
                    <mxGeometry x="767.5" y="565" width="80" height="30" as="geometry"/>
                </mxCell>
                <mxCell id="66" value="operand_input&lt;br&gt;" style="text;html=1;align=center;verticalAlign=middle;resizable=0;points=[];autosize=1;strokeColor=none;fillColor=none;fontFamily=Helvetica;fontSize=10;" vertex="1" parent="1">
                    <mxGeometry x="10.5" y="300" width="90" height="30" as="geometry"/>
                </mxCell>
                <mxCell id="67" value="operator_select&lt;br&gt;" style="text;html=1;align=center;verticalAlign=middle;resizable=0;points=[];autosize=1;strokeColor=none;fillColor=none;fontFamily=Helvetica;fontSize=10;" vertex="1" parent="1">
                    <mxGeometry x="10.5" y="440" width="90" height="30" as="geometry"/>
                </mxCell>
                <mxCell id="68" value="reset&lt;br&gt;" style="text;html=1;align=center;verticalAlign=middle;resizable=0;points=[];autosize=1;strokeColor=none;fillColor=none;fontFamily=Helvetica;fontSize=10;" vertex="1" parent="1">
                    <mxGeometry x="454.5" y="50" width="50" height="30" as="geometry"/>
                </mxCell>
                <mxCell id="69" value="confirm&lt;br&gt;" style="text;html=1;align=center;verticalAlign=middle;resizable=0;points=[];autosize=1;strokeColor=none;fillColor=none;fontFamily=Helvetica;fontSize=10;" vertex="1" parent="1">
                    <mxGeometry x="401.5" y="50" width="60" height="30" as="geometry"/>
                </mxCell>
                <mxCell id="70" value="display_mode&lt;br style=&quot;font-size: 10px;&quot;&gt;" style="text;html=1;align=center;verticalAlign=middle;resizable=0;points=[];autosize=1;strokeColor=none;fillColor=none;fontFamily=Helvetica;fontSize=10;" vertex="1" parent="1">
                    <mxGeometry x="770.5" y="297.5" width="90" height="30" as="geometry"/>
                </mxCell>
            </root>
        </mxGraphModel>
    </diagram>
</mxfile>